PathFileType	4	(X/Y/Z)	Walk8.trc
DataRate	CameraRate	NumFrames	NumMarkers	Units	OrigDataRate	OrigDataStartFrame	OrigNumFrames
200.000000	200.000000	5	54	mm	200.000000	256	521
Frame#	Times		RBHD		C7		RASI		RACR1		RUA1		RElbow		RFA1		RWRU		RCAR		LACR1		LElbowM		LFA1		LWRR		RTH1		RTH3		RTH2		RLFC		RTB1		RTB3		RTB2		RTB4		RMT1		RMT5		LTH2		RTH4		LWRU		LTH3		LTH4		LElbow		LPSI		RPSI		LTB1		LLFC		T10		RWRR		LTB4		LTB3		LBHD		LTH1		LMT1		RBack		LCAL		CLAV		LTB2		LLMAL		LToe		RLMAL		LMT5		RMMAL		RElbowM		RToe		LUA1		LCAR		RCAL
			X1	Y1	Z1	X2	Y2	Z2	X3	Y3	Z3	X4	Y4	Z4	X5	Y5	Z5	X6	Y6	Z6	X7	Y7	Z7	X8	Y8	Z8	X9	Y9	Z9	X10	Y10	Z10	X11	Y11	Z11	X12	Y12	Z12	X13	Y13	Z13	X14	Y14	Z14	X15	Y15	Z15	X16	Y16	Z16	X17	Y17	Z17	X18	Y18	Z18	X19	Y19	Z19	X20	Y20	Z20	X21	Y21	Z21	X22	Y22	Z22	X23	Y23	Z23	X24	Y24	Z24	X25	Y25	Z25	X26	Y26	Z26	X27	Y27	Z27	X28	Y28	Z28	X29	Y29	Z29	X30	Y30	Z30	X31	Y31	Z31	X32	Y32	Z32	X33	Y33	Z33	X34	Y34	Z34	X35	Y35	Z35	X36	Y36	Z36	X37	Y37	Z37	X38	Y38	Z38	X39	Y39	Z39	X40	Y40	Z40	X41	Y41	Z41	X42	Y42	Z42	X43	Y43	Z43	X44	Y44	Z44	X45	Y45	Z45	X46	Y46	Z46	X47	Y47	Z47	X48	Y48	Z48	X49	Y49	Z49	X50	Y50	Z50	X51	Y51	Z51	X52	Y52	Z52	X53	Y53	Z53	X54	Y54	Z54

256	1.28	-291.91	1568.2	381.1	-328.54	1440.5	302.11	-225.22	950.43	418.05	-256.02	1382.5	442.02	-301.73	1193.1	520.57	-355.83	1070.4	548.3	-319.54	927.08	569.72	-334.11	795.95	564.7	-291.41	742.38	571.64	-299.6	1437.4	124.62	-405.29	1118.6	84.662	-282.21	992.75	-23.362	-216.05	897.74	17.653	-247.64	740.51	466.92	-204.87	559.81	428.24	-161.92	671.49	419.8	-185.08	459.98	409.05	-161.09	370.11	320.17	-187.11	181.01	313.94	-175.2	272.42	390.59	-171.65	277.42	318.83	-103.73	37.904	271.32	-129.58	33.608	360.34	-179.98	656.51	120.55	-225.76	648.95	451.22	-285.56	873.86	-18.265	-229.82	552.51	101.67	-250.95	639.54	93.21	-382.33	1119.4	7.1204	-421.2	955.39	228.33	-415.24	962.34	333.65	-252.14	344.02	172.73	-226.74	445.13	114.41	-429.09	1132.1	280.64	-264.45	794.42	528.86	-334.92	300.56	178.07	-415.29	254.34	181.59	-293.62	1585.2	243.71	-271.91	735.2	91.935	-502.69	91.11	231.49	-397.24	1343.9	395.94	-616.68	253.85	204.5	-198.18	1357.1	276.03	-353.23	326.15	113.4	-556.76	241.58	156.31	-471.49	66.524	208.93	-249.99	80.578	358.09	-522.23	102.69	152.81	-231.03	96.221	269.24	-385.05	1047.6	457.05	-51.202	38.101	292.19	-342.71	1247.1	23.834	-207.79	845.93	-30.862	-304.08	33.691	318.82
257	1.285	-285.65	1569.7	380.96	-322.49	1441.9	302.01	-219.34	951.53	418.28	-249.71	1384.1	441.78	-293.69	1194.5	520.67	-346.56	1071.5	549.07	-308.25	928.54	570.08	-321.02	797.33	565.16	-277.5	744.43	571.86	-294.08	1438.7	124.49	-400.84	1120.2	84.927	-278.54	993.61	-23.059	-213	898.14	18.089	-243.23	741.23	466.93	-202.57	559.98	428.45	-158.38	671.19	419.83	-183.9	459.91	409.28	-160.28	369.95	320.43	-186.91	180.94	314.05	-174.71	272.24	390.82	-171.1	277.31	319.03	-103.78	37.915	271.34	-129.63	33.625	360.32	-170.66	659.76	119.95	-222.44	649.41	451.32	-282.6	874.74	-18.009	-218.95	554.98	101.32	-241.49	641.68	92.877	-377.86	1120.8	7.4961	-415.07	956.87	228.32	-409.22	963.75	333.6	-238.01	346.55	172.23	-213.91	447.97	114.1	-422.93	1133.4	280.87	-251.61	796.78	528.81	-320.31	302.29	177.61	-400.15	255.2	181.15	-287.1	1586.9	243.55	-263.96	737.02	91.66	-484.53	91.361	230.39	-390.98	1345.1	396.19	-601.81	251.79	204.38	-192.17	1358.5	275.71	-339.08	327.93	113.11	-541.53	240.9	156.09	-452.86	67.553	207.7	-249.99	80.615	358.09	-504.31	103.14	151.75	-231	96.296	269.25	-376.42	1048.3	457.96	-51.255	38.107	292.25	-337.95	1248.5	23.901	-205.02	846.09	-30.237	-304.11	33.69	318.8
258	1.29	-279.42	1571.2	380.78	-316.45	1443.2	301.9	-213.49	952.6	418.52	-243.45	1385.7	441.54	-285.73	1196	520.79	-337.33	1072.5	549.84	-296.96	930.07	570.42	-307.88	798.8	565.59	-263.52	746.6	572.06	-288.59	1440	124.36	-396.42	1121.7	85.211	-274.92	994.48	-22.773	-209.98	898.56	18.498	-238.87	741.93	466.95	-200.33	560.14	428.68	-154.91	670.86	419.88	-182.79	459.85	409.53	-159.52	369.8	320.72	-186.7	180.87	314.17	-174.26	272.07	391.05	-170.58	277.22	319.24	-103.81	37.916	271.38	-129.68	33.632	360.32	-161.43	663.03	119.33	-219.17	649.85	451.43	-279.66	875.63	-17.767	-208.2	557.5	100.95	-232.11	643.85	92.525	-373.48	1122.2	7.8681	-408.93	958.33	228.25	-403.2	965.13	333.5	-223.92	349.1	171.69	-201.24	450.86	113.79	-416.78	1134.6	281.09	-238.72	799.26	528.74	-305.68	303.94	177.16	-384.91	255.88	180.72	-280.63	1588.6	243.35	-256.04	738.85	91.366	-466.03	91.383	229.38	-384.75	1346.4	396.41	-586.79	249.26	204.31	-186.18	1359.9	275.4	-324.98	329.61	112.84	-526.16	239.82	155.92	-433.88	68.407	206.58	-249.98	80.651	358.09	-486.09	103.29	150.77	-230.97	96.374	269.25	-367.78	1049	458.87	-51.304	38.104	292.31	-333.28	1249.7	23.972	-202.28	846.27	-29.633	-304.14	33.695	318.78
259	1.295	-273.22	1572.7	380.55	-310.44	1444.5	301.77	-207.68	953.61	418.77	-237.25	1387.2	441.32	-277.85	1197.5	520.93	-328.16	1073.6	550.61	-285.68	931.65	570.76	-294.67	800.35	566	-249.48	748.89	572.23	-283.09	1441.1	124.23	-392.04	1123.2	85.522	-271.35	995.33	-22.503	-206.99	899	18.879	-234.55	742.59	466.96	-198.13	560.3	428.92	-151.49	670.52	419.94	-181.73	459.79	409.8	-158.8	369.66	321.02	-186.5	180.82	314.3	-173.83	271.92	391.3	-170.07	277.14	319.46	-103.85	37.91	271.41	-129.72	33.632	360.32	-152.28	666.28	118.68	-215.95	650.27	451.54	-276.75	876.51	-17.534	-197.55	560.06	100.58	-222.79	646.05	92.155	-369.17	1123.5	8.2398	-402.78	959.75	228.12	-397.21	966.45	333.35	-209.89	351.68	171.14	-188.75	453.79	113.48	-410.62	1135.8	281.28	-225.78	801.85	528.66	-291.03	305.5	176.71	-369.58	256.38	180.31	-274.2	1590.2	243.1	-248.15	740.69	91.055	-447.22	91.187	228.45	-378.57	1347.6	396.61	-571.6	246.28	204.29	-180.19	1361.3	275.12	-310.91	331.18	112.57	-510.65	238.36	155.78	-414.58	69.091	205.56	-249.98	80.686	358.09	-467.57	103.17	149.87	-230.92	96.454	269.26	-359.12	1049.7	459.76	-51.348	38.09	292.37	-328.7	1251	24.049	-199.57	846.46	-29.055	-304.16	33.707	318.75
260	1.3	-267.05	1574.2	380.29	-304.43	1445.8	301.64	-201.9	954.58	419.04	-231.09	1388.8	441.11	-270.05	1198.9	521.08	-319.05	1074.7	551.37	-274.42	933.27	571.1	-281.43	801.98	566.36	-235.39	751.29	572.37	-277.6	1442.3	124.09	-387.68	1124.7	85.86	-267.83	996.17	-22.247	-204.02	899.44	19.229	-230.27	743.23	466.97	-195.97	560.44	429.18	-148.12	670.16	420	-180.71	459.74	410.07	-158.11	369.53	321.33	-186.3	180.77	314.42	-173.42	271.77	391.56	-169.57	277.06	319.69	-103.87	37.896	271.44	-129.75	33.624	360.32	-143.21	669.52	118	-212.76	650.68	451.65	-273.87	877.37	-17.309	-187.01	562.63	100.19	-213.55	648.25	91.77	-364.93	1124.8	8.6144	-396.63	961.12	227.94	-391.22	967.71	333.15	-195.93	354.26	170.58	-176.42	456.74	113.17	-404.46	1137	281.46	-212.81	804.55	528.57	-276.39	306.98	176.27	-354.16	256.69	179.93	-267.81	1591.7	242.8	-240.28	742.52	90.728	-428.13	90.784	227.6	-372.41	1348.8	396.78	-556.24	242.86	204.3	-174.21	1362.6	274.85	-296.89	332.63	112.31	-495	236.52	155.68	-394.98	69.613	204.63	-249.97	80.721	358.09	-448.79	102.78	149.05	-230.87	96.535	269.26	-350.45	1050.3	460.64	-51.384	38.061	292.44	-324.19	1252.1	24.137	-196.9	846.65	-28.506	-304.19	33.726	318.72
